<svg width="24" height="24" viewBox="0 0 24 24" fill="none" xmlns="http://www.w3.org/2000/svg">
<rect width="24" height="24" rx="12" fill="#F6F6F7"/>
<path d="M14.5687 18.4247C14.5628 18.3755 14.5603 18.3258 14.5613 18.2761C14.5532 18.2609 14.5481 18.2439 14.5463 18.2264V16.0932C14.5463 15.4213 14.3297 14.8477 13.8964 14.3735C15.0549 14.1529 15.9214 13.682 16.4954 12.9598C17.0694 12.2376 17.3569 11.3636 17.3569 10.3382C17.3569 9.37896 17.0749 8.54644 16.5104 7.84121C16.712 7.13541 16.6766 6.39139 16.405 5.60858C16.1225 5.58672 15.8156 5.63917 15.4832 5.7659C15.1507 5.89263 14.9042 6.01117 14.7424 6.12096C14.5817 6.23132 14.4355 6.33622 14.3047 6.43562C13.7202 6.25919 13.0679 6.17069 12.3481 6.17069C11.6274 6.17069 10.9805 6.25919 10.406 6.43562C10.2952 6.34715 10.1664 6.251 10.0207 6.1461C9.87443 6.04122 9.62038 5.91449 9.25752 5.7659C8.89515 5.61677 8.56773 5.55339 8.27523 5.5758C7.99323 6.36954 7.96328 7.12448 8.18488 7.84119C7.63086 8.54698 7.35385 9.37896 7.35385 10.3382C7.35385 11.3636 7.63585 12.2349 8.19987 12.951C8.76388 13.6678 9.63037 14.1419 10.7988 14.3735C10.4997 14.6878 10.29 15.09 10.1949 15.5317C9.33838 15.7627 8.73892 15.5972 8.39652 15.0345C7.76163 14.0206 7.19262 13.6568 6.68901 13.9436C6.61814 14.0206 6.62861 14.1004 6.71896 14.1834C6.8098 14.2659 6.94555 14.3763 7.12724 14.5139C7.30841 14.6522 7.44419 14.8035 7.53502 14.969C7.54501 14.9908 7.57295 15.0711 7.61838 15.2088C7.66178 15.3418 7.70704 15.474 7.75415 15.6054C7.79907 15.7321 7.88491 15.8731 8.01119 16.0271C8.13697 16.1817 8.28322 16.3112 8.44944 16.4161C8.61565 16.5204 8.84474 16.598 9.13673 16.6477C9.42872 16.6968 9.76113 16.6996 10.134 16.6559V18.3177C10.134 18.334 10.1315 18.3614 10.1265 18.4007C10.1215 18.4389 14.5687 18.4247 14.5687 18.4247Z" fill="black"/>
</svg>
